<svg width="286" height="100" viewBox="0 0 286 100" fill="none" xmlns="http://www.w3.org/2000/svg">
<path fill-rule="evenodd" clip-rule="evenodd" d="M44.2081 12.6079L44.1668 12.243L44.1358 11.9195L43.8191 11.9745C43.6711 11.9986 43.5094 12.009 43.3373 12.0193C42.9232 12.0022 42.5133 12.1088 42.1601 12.3256C41.198 13.0892 40.2597 13.9106 39.352 14.7052L39.352 14.7053L39.3377 14.7178C39.1774 14.8573 39.017 14.9983 38.8565 15.1395L38.8563 15.1397C38.4347 15.5106 38.012 15.8823 37.5858 16.2288C36.5979 17.0583 35.8889 17.3956 35.2762 17.3233C34.7324 17.2579 34.1989 16.8587 33.5552 16.0326L34.5878 14.8727C35.5653 13.7953 36.5738 12.6801 37.4722 11.5168C37.8974 10.8814 38.1987 10.1713 38.3602 9.42406C38.3879 9.32308 38.4168 9.22438 38.4461 9.12402L38.4464 9.12294C38.468 9.0492 38.4898 8.97455 38.5116 8.89744C38.5545 8.69071 38.5371 8.47602 38.4614 8.27891C38.3858 8.08181 38.2551 7.9106 38.0848 7.78569C37.8992 7.71739 37.7016 7.68736 37.5041 7.69742C37.3065 7.70747 37.113 7.7574 36.9352 7.8442C36.7484 7.95285 36.593 8.10824 36.4843 8.2951C36.4336 8.37345 36.376 8.44716 36.3122 8.51538C35.4722 9.32989 34.6306 10.1413 33.7759 10.9653L33.7754 10.9658L33.7703 10.9707C33.3591 11.3671 32.9448 11.7666 32.5261 12.1707L31.6071 13.0553L30.0823 10.5393C31.1413 9.18237 32.2913 7.89901 33.5243 6.69803L33.5674 6.65378C35.2336 4.94671 36.949 3.18923 38.1434 1.02914L38.2294 0.870813L37.6649 0L37.4205 0.127352C37.2175 0.234053 37.0041 0.333869 36.7941 0.430244C36.2955 0.639514 35.823 0.906355 35.3864 1.22533C33.6654 2.60211 31.6346 4.23016 29.6486 6.0062C28.5559 7.02062 27.5324 8.10728 26.5853 9.25885C25.5734 10.4463 26.0174 11.4135 26.5853 12.0124C26.7924 12.274 26.952 12.5699 27.0568 12.8867C27.1462 13.1126 27.2485 13.3333 27.3632 13.5475C27.6041 13.9674 27.8313 14.3977 28.0516 14.8245C28.6068 15.9394 29.2551 17.0056 29.9894 18.0117C30.6188 18.7857 31.4128 19.4097 32.3136 19.8384C33.2144 20.267 34.1994 20.4896 35.197 20.4899C35.9948 20.4975 36.7849 20.3332 37.5135 20.0081C39.9053 18.9086 41.6188 16.9778 43.2782 15.1079L43.3648 15.0103L44.0532 14.2497C44.2218 14.0803 44.3222 13.8549 44.3354 13.6164C44.2803 13.2756 44.2425 12.9348 44.2081 12.6079ZM58.1664 48.6017L65.1156 44.0205L65.1329 78.378H84.752V9.96582C84.7027 9.98976 84.6603 10.0085 84.6227 10.0251C84.5685 10.0492 84.5242 10.0688 84.4835 10.0932C78.1526 13.9803 71.816 17.8594 65.4736 21.7304C65.3399 21.8064 65.2322 21.921 65.1647 22.0591C65.0971 22.1973 65.0728 22.3526 65.095 22.5048C65.1044 23.6484 65.1031 24.7948 65.1018 25.9424V25.9437C65.1003 27.3207 65.0988 28.6994 65.1156 30.0771C65.1384 30.3114 65.0918 30.5473 64.9817 30.7553C64.8715 30.9634 64.7027 31.1345 64.4961 31.2474C63.3762 31.962 62.2663 32.6945 61.1563 33.427L61.1555 33.4275L61.1548 33.428C60.3139 33.9829 59.473 34.5379 58.6276 35.0852C58.4658 35.1745 58.3335 35.3089 58.2467 35.4721C58.1599 35.6352 58.1225 35.8201 58.1388 36.0042V48.0131C58.1402 48.0748 58.1446 48.1365 58.1496 48.205L58.1496 48.2051L58.1496 48.2052C58.1574 48.3123 58.1664 48.4359 58.1664 48.6017ZM42.8566 45.8521C42.4691 44.932 42.0881 44.0123 41.7079 43.0947L41.7073 43.0931L41.7072 43.093L41.7072 43.0929L41.7072 43.0928L41.7071 43.0927L41.7071 43.0927L41.7071 43.0926L41.707 43.0925L41.707 43.0924L41.707 43.0923L41.7069 43.0923L41.7069 43.0922L41.7069 43.0921L41.7068 43.092L41.7068 43.0919L41.7068 43.0919L41.7067 43.0918L41.7067 43.0917L41.7067 43.0916L41.7065 43.0913C40.682 40.6184 39.6637 38.1605 38.5415 35.7482C38.2271 35.0736 37.671 34.5121 37.1139 33.9497L37.1139 33.9496L37.1138 33.9496L37.1138 33.9495L37.1137 33.9495L37.1137 33.9495L37.1136 33.9494L37.1136 33.9494L37.1136 33.9493L37.1135 33.9493L37.1135 33.9492L37.1134 33.9492L37.1134 33.9491L37.1133 33.9491L37.1133 33.949L37.1132 33.949L37.1132 33.9489L37.1131 33.9489L37.1131 33.9489L37.1131 33.9488L37.113 33.9488C36.8348 33.6679 36.5563 33.3867 36.3077 33.091C36.1356 32.8845 35.9118 32.5919 35.9635 32.4026C36.0151 32.2133 36.3352 32.0034 36.5761 31.9311C39.0027 31.198 41.6117 32.4715 42.7235 34.7845C43.0289 35.4092 43.39 36.0054 43.7504 36.6005C44.2021 37.3465 44.6528 38.0908 44.9917 38.8873C45.7568 40.6883 46.4287 42.5306 47.1006 44.3727C47.3596 45.0829 47.6186 45.7931 47.8829 46.5009C47.9628 46.7139 48.0457 46.926 48.1285 47.138C48.3669 47.7482 48.6049 48.3576 48.771 48.986C49.1358 50.3627 49.4387 51.7395 49.7209 53.1163C49.9481 54.2315 50.1649 55.3536 50.2923 56.4825C50.4211 57.6246 50.5235 58.7698 50.626 59.9152L50.6261 59.9159C50.7126 60.8828 50.7991 61.85 50.9015 62.8157C51.1234 64.6637 50.9665 66.5375 50.4403 68.3228C50.1443 69.3038 49.6693 70.178 48.5128 70.388C47.8967 70.4981 47.5904 70.388 47.5319 69.6376C47.3891 67.7509 47.1685 65.8696 46.9483 63.9912C46.919 63.7416 46.8897 63.492 46.8607 63.2425C46.4832 60.0292 44.8285 57.3935 43.1729 54.7566L43.1728 54.7564L43.1727 54.7562L43.1725 54.756L43.1724 54.7558L43.1723 54.7555L43.1721 54.7553L43.172 54.7551L43.1718 54.7549L43.1717 54.7547L43.1716 54.7545L43.1714 54.7542L43.1713 54.754L43.1712 54.7538L43.171 54.7536L43.1709 54.7534L43.1707 54.7532L43.1706 54.7529L43.1705 54.7527L43.1703 54.7525L43.1702 54.7523C42.9398 54.3853 42.7094 54.0184 42.4825 53.6498C42.2224 53.2276 41.9668 52.803 41.7114 52.3786C41.1588 51.4605 40.6067 50.5434 40.0112 49.6537C39.8718 49.4452 39.7337 49.2347 39.5952 49.0238L39.5949 49.0234L39.5947 49.023C38.9126 47.9839 38.2242 46.9351 37.3575 46.0741C35.4228 44.1563 33.3959 42.333 31.3693 40.5099L31.369 40.5096L31.3688 40.5094L31.3686 40.5093C30.9185 40.1043 30.4683 39.6994 30.0192 39.2934C29.9247 39.2077 29.8125 39.1307 29.7012 39.0542C29.3343 38.8023 28.9755 38.5559 29.2792 38.0199C29.5373 37.5587 30.0054 37.0252 30.477 36.9047C31.382 36.6369 32.3444 36.6316 33.2523 36.8893C34.1602 37.1471 34.9762 37.6573 35.6055 38.3607C37.301 40.1296 39.0086 41.8881 40.7471 43.6783L40.7475 43.6788L40.7479 43.6791L40.7517 43.6831C41.448 44.4001 42.1493 45.1222 42.8566 45.8521ZM165.692 57.1789C166.825 58.2986 167.474 59.8169 167.501 61.4091C167.494 62.2217 167.325 63.0247 167.003 63.771C166.681 64.5172 166.213 65.1915 165.627 65.7544C165.041 66.3172 164.348 66.7571 163.589 67.0482C162.831 67.3394 162.021 67.4759 161.209 67.4497C157.991 67.4221 155.289 64.6238 155.313 61.3368C155.359 59.7451 156.026 58.2346 157.172 57.1284C158.317 56.0222 159.85 55.4081 161.442 55.4176C163.035 55.427 164.56 56.0592 165.692 57.1789ZM137.47 50.6874C138.3 50.2225 139.16 49.8132 140.045 49.4621L140.048 49.4655L140.151 49.6376C140.114 49.7089 140.078 49.7871 140.04 49.8667L140.04 49.8677C139.998 49.9569 139.956 50.0479 139.91 50.1332C137.59 54.5796 136.702 59.6351 137.37 64.606C138.037 69.5768 140.227 74.2193 143.638 77.896C143.779 78.0594 143.956 78.1886 144.154 78.2738C144.353 78.3591 144.568 78.3982 144.784 78.3882C155.847 78.3698 166.909 78.3698 177.971 78.3882C178.209 78.4015 178.446 78.3585 178.664 78.2628C178.882 78.1671 179.074 78.0214 179.224 77.8375C184.46 71.9517 186.535 65.116 185.31 57.3303C183.51 45.879 173.304 37.1812 161.657 37.133C157.059 37.0783 152.541 38.3394 148.636 40.7677C148.534 40.829 148.428 40.8823 148.3 40.9464C148.241 40.9757 148.178 41.0073 148.109 41.043V40.2479C148.109 39.5829 148.106 38.9182 148.102 38.2537L148.102 38.2452V38.2449V38.2445V38.2441V38.2437V38.2434V38.243V38.2426V38.2422V38.2418V38.2415V38.2411V38.2407V38.2403V38.24V38.2396V38.2392V38.2388V38.2384V38.2381V38.2377C148.095 36.9059 148.088 35.5746 148.109 34.2417C148.126 33.7082 147.989 33.4191 147.421 33.4053C147.055 33.3965 146.693 33.3492 146.331 33.3019L146.331 33.3019L146.33 33.3019L146.33 33.3019L146.33 33.3018L146.33 33.3018L146.33 33.3018L146.33 33.3018L146.329 33.3018L146.329 33.3017L146.329 33.3017C146.129 33.2756 145.928 33.2494 145.727 33.2298C142.495 32.9269 139.466 33.3847 136.799 35.3914C134.875 36.8788 133.308 38.7782 132.214 40.9501C131.972 41.4088 131.745 41.875 131.518 42.3418C131.438 42.5055 131.358 42.6693 131.278 42.8329L131.147 42.8088V33.6325C131.096 33.6617 131.049 33.688 131.006 33.7121L130.909 33.765L130.904 33.7677L130.904 33.7678C130.793 33.8288 130.705 33.8771 130.621 33.932C124.838 37.6975 119.05 41.4572 113.256 45.2112C113.076 45.3076 112.928 45.4551 112.832 45.6353C112.736 45.8154 112.695 46.02 112.716 46.2232V77.6413V78.3297H132.445V77.5449C132.445 75.5632 132.438 73.582 132.431 71.6009C132.417 67.6396 132.403 63.6793 132.445 59.7191C132.486 55.8503 134.204 52.7973 137.47 50.6874ZM237.192 48.8042C233.364 47.0832 229.802 47.2071 226.473 49.5614C223.524 51.6507 222.161 54.597 222.185 58.3522L237.192 48.8042ZM251.892 45.7065L270.265 33.7629V43.3487L270.431 43.39L270.482 43.286L270.483 43.2845L270.483 43.2834C270.576 43.0948 270.671 42.9043 270.758 42.7016C271.694 40.5531 272.982 38.5756 274.568 36.8503C277.401 33.8455 280.898 32.7647 284.938 33.2225C285.128 33.2428 285.316 33.2661 285.512 33.2904C285.616 33.3031 285.721 33.3162 285.83 33.3292V49.5924C285.54 49.5611 285.253 49.5324 284.968 49.5038C284.375 49.4444 283.79 49.3858 283.207 49.3067C276.85 48.4531 272.165 53.3304 271.628 58.7033C271.577 59.2471 271.546 59.7944 271.546 60.3416V77.5342V78.3189H251.892V53.5369L228.198 68.4164C230.848 69.7175 236.428 69.6314 240.176 65.0709L250.867 72.8153C249.34 74.8596 247.489 76.6398 245.387 78.0849C245.188 78.1987 244.962 78.2536 244.733 78.2432H218.822C218.445 78.2208 218.085 78.0826 217.789 77.8474C212.41 73.8547 209.081 68.5782 208.169 61.9215C207.109 54.1736 209.315 47.3827 214.798 41.8067C225.365 31.061 242.981 32.7269 251.527 45.1936L251.872 45.7133L251.892 45.7065ZM206.781 78.3393H187.193V10.5811C187.245 10.6078 187.294 10.633 187.342 10.6573L187.343 10.6575C187.467 10.7207 187.58 10.7781 187.689 10.8426C193.903 14.6839 200.117 18.5274 206.33 22.3732C206.494 22.4589 206.628 22.5917 206.715 22.7542C206.802 22.9168 206.838 23.1018 206.819 23.2853V77.7025C206.819 77.8335 206.811 77.9619 206.803 78.0984C206.797 78.1807 206.792 78.2659 206.788 78.3565L206.781 78.3393ZM88.8635 78.3465H108.5L108.49 35.8694C108.435 35.8995 108.39 35.923 108.35 35.9434L108.35 35.9435C108.295 35.9722 108.251 35.9947 108.211 36.0208C101.91 39.9401 95.5994 43.8501 89.28 47.751C89.1301 47.8398 89.0102 47.9716 88.9359 48.1293C88.8617 48.287 88.8365 48.4634 88.8635 48.6356V77.6374V78.3465ZM88.8009 43.7143V43.7114C88.8863 43.6656 88.9613 43.6264 89.0289 43.591C89.1544 43.5254 89.2551 43.4728 89.3516 43.4148C95.5518 39.5599 101.759 35.7129 107.973 31.874C108.128 31.7942 108.256 31.6702 108.34 31.5176C108.425 31.365 108.462 31.1908 108.448 31.0169V18.6259C108.448 18.5429 108.441 18.4606 108.434 18.3709C108.426 18.2635 108.417 18.1455 108.417 18.0029C108.335 18.0498 108.262 18.0911 108.194 18.1294C108.078 18.1951 107.978 18.2518 107.88 18.3127C101.68 22.1677 95.4818 26.0123 89.2862 29.8467C89.1223 29.9324 88.9882 30.0658 88.9016 30.2292C88.815 30.3926 88.7799 30.5785 88.8009 30.7622V42.9571V43.7114L88.77 43.7281L88.8009 43.7143ZM242.605 83.4019C242.366 83.4034 242.125 83.405 241.881 83.405L241.891 99.7026H245.048V90.2028C245.112 90.3527 245.167 90.4772 245.215 90.588C245.274 90.7214 245.324 90.835 245.371 90.9497C246.479 93.6918 247.592 96.4396 248.71 99.1932C248.792 99.3894 248.951 99.706 249.085 99.706C249.813 99.7401 250.543 99.7363 251.267 99.7325C251.495 99.7313 251.722 99.7301 251.949 99.7301V83.4394H248.82V92.7705L248.761 92.6475C248.674 92.467 248.595 92.3027 248.527 92.1337C248.347 91.694 248.167 91.2542 247.987 90.8144L247.547 89.7385L247.54 89.7228L247.537 89.7151L247.537 89.7149C246.744 87.7772 245.952 85.8398 245.147 83.9075C245.068 83.7113 244.855 83.429 244.69 83.429C244.003 83.393 243.313 83.3974 242.605 83.4019ZM168.131 83.4392V99.6887H171.339V92.8805H174.598V99.7024H177.803V83.4461H174.56V89.7793H171.321V83.4392H168.131ZM107.284 89.5315C106.833 90.4126 105.997 90.5056 105.043 90.4126V86.1136C105.876 86.0551 106.699 86.0276 107.218 86.7779C107.821 87.6556 107.735 88.6504 107.284 89.5315ZM101.797 99.7059H105.012V92.5329C105.15 92.6366 105.251 92.7812 105.301 92.9459C105.515 93.5126 105.729 94.0801 105.943 94.6474C106.515 96.1684 107.088 97.689 107.669 99.1931C107.745 99.3927 107.9 99.7162 108.031 99.7162C108.842 99.748 109.655 99.7451 110.504 99.7421L110.759 99.7413L110.94 99.7408C111.052 99.7405 111.164 99.7403 111.276 99.7403C111.225 99.5985 111.183 99.4778 111.146 99.3695C111.095 99.2228 111.052 99.099 111.005 98.9762L110.786 98.4035L110.481 97.6011C109.878 96.0175 109.275 94.4332 108.664 92.853C108.537 92.526 108.495 92.3195 108.86 92.0785C110.089 91.2628 110.643 90.0478 110.757 88.6091C110.977 85.735 109.683 83.9211 106.929 83.5769C105.771 83.433 104.595 83.4429 103.42 83.4528C102.91 83.4571 102.399 83.4614 101.89 83.453C101.869 83.4506 101.847 83.4749 101.826 83.4991C101.816 83.5098 101.807 83.5204 101.797 83.5287V99.7059ZM206.836 90.4023C207.779 90.5124 208.578 90.4023 209.094 89.5659C209.61 88.7295 209.559 87.4043 209.025 86.7538C208.447 86.0413 207.649 86.0654 206.836 86.1239V90.4023ZM210.302 92.3332L213.121 99.7368C212.846 99.7368 212.576 99.7381 212.311 99.7393C211.49 99.743 210.713 99.7466 209.937 99.7127C209.783 99.7127 209.593 99.403 209.5 99.1999C208.93 97.7255 208.375 96.2457 207.819 94.7657L207.818 94.7639C207.613 94.2163 207.407 93.6687 207.201 93.1214C207.132 92.8925 207.004 92.6859 206.829 92.5225V99.699H203.639V83.4082C204.211 83.4233 204.784 83.4115 205.355 83.3998C206.869 83.3686 208.372 83.3377 209.834 83.8075C211.848 84.4546 212.884 86.413 212.55 88.8431C212.481 89.5618 212.24 90.2536 211.849 90.8608C211.458 91.4679 210.928 91.9727 210.302 92.3332ZM225.737 83.4377H222.55L222.536 83.4136C222.509 83.462 222.489 83.5142 222.477 83.5685C222.476 84.6601 222.473 85.7527 222.47 86.8453V86.8457V86.846V86.8463V86.8466V86.8469V86.8473V86.8476V86.8479V86.8482V86.8506C222.461 89.9111 222.451 92.9722 222.494 96.0145C222.519 97.6736 223.259 99.0538 224.928 99.5598C225.954 99.8546 227.022 99.971 228.088 99.904C230.834 99.7594 232.122 98.3344 232.122 95.6084V84.1123C232.122 84.0125 232.114 83.9096 232.106 83.8018L232.106 83.8013C232.097 83.6824 232.087 83.5574 232.087 83.4239H228.89V84.1915V94.7445C228.893 95.0379 228.876 95.3312 228.838 95.6222C228.693 96.6238 228.298 97.0196 227.389 97.0403C226.48 97.0609 225.964 96.6341 225.792 95.6841C225.742 95.3343 225.723 94.9806 225.737 94.6274V84.2052V83.4377ZM271.8 87.057L268.702 88.2514C268.659 88.1133 268.619 87.9828 268.581 87.8572C268.516 87.6449 268.456 87.4466 268.389 87.2498C268.319 86.9714 268.168 86.7202 267.955 86.5283C267.741 86.3364 267.476 86.2125 267.191 86.1725C266.887 86.1057 266.569 86.1422 266.288 86.2763C266.007 86.4103 265.779 86.6341 265.639 86.9125C265.249 87.7209 264.968 88.5774 264.803 89.4595C264.476 91.2248 264.534 93.0397 264.971 94.7808C265.136 95.407 265.444 95.9866 265.87 96.4742C266.039 96.6797 266.26 96.8376 266.509 96.9325C266.758 97.0275 267.027 97.0563 267.291 97.0161C267.554 96.9758 267.803 96.868 268.012 96.7031C268.222 96.5381 268.385 96.3217 268.486 96.075C268.697 95.6257 268.817 95.1221 268.946 94.5825C269.014 94.2954 269.085 93.998 269.174 93.6931H267.023V90.7055C267.136 90.6833 267.251 90.6684 267.367 90.6608H271.728L271.765 90.6607C272.032 90.6598 272.265 90.6591 272.265 91.0669C272.265 92.8395 272.22 94.6052 271.659 96.309C271.008 98.2812 269.862 99.7337 267.625 99.9644C265.295 100.202 263.567 99.2519 262.462 97.228C261.275 95.0699 261.041 92.7191 261.233 90.3097C261.314 88.7929 261.707 87.3092 262.39 85.9522C262.844 85.028 263.57 84.2654 264.471 83.7674C265.373 83.2695 266.405 83.0601 267.429 83.1676C269.621 83.3914 271.16 84.7337 271.81 87.0605L271.8 87.057ZM68.5671 83.426H65.077H65.0735C65.1127 83.5621 65.1479 83.6892 65.1817 83.8116C65.2103 83.915 65.2379 84.015 65.2663 84.1143C66.5834 88.6784 67.9051 93.2424 69.2314 97.8064C69.2835 97.9876 69.3195 98.1877 69.3556 98.3884L69.3556 98.3885L69.3556 98.3886L69.3556 98.3887L69.3557 98.3888L69.3557 98.3889L69.3557 98.3889L69.3557 98.389L69.3558 98.3891C69.4438 98.8782 69.5324 99.3704 69.8544 99.5997C70.1523 99.8118 70.6146 99.7857 71.0858 99.7591H71.0859H71.086H71.0861H71.0862H71.0863H71.0864H71.0866H71.0867C71.3338 99.7451 71.5833 99.731 71.8129 99.7511C72.2948 99.7959 72.5082 99.6169 72.639 99.1453C73.4276 96.2553 74.2282 93.3705 75.0287 90.4859C75.3637 89.2788 75.6986 88.0718 76.0327 86.8645C76.3459 85.7389 76.6523 84.6065 76.9758 83.4053C76.7317 83.4053 76.4917 83.4046 76.2547 83.4039H76.2542C75.4386 83.4016 74.6594 83.3993 73.8781 83.426C73.7438 83.4294 73.5407 83.6428 73.5029 83.7977C72.7663 86.7532 72.04 89.7133 71.3241 92.6779C71.2686 92.9087 71.2332 93.1423 71.1956 93.3899L71.1956 93.3901L71.1955 93.3911C71.1748 93.5271 71.1535 93.6674 71.1279 93.8138C70.2606 90.3099 69.4138 86.8679 68.5671 83.426ZM194.122 83.4478C194.122 84.3702 194.122 85.2479 194.101 86.1256C194.101 86.2461 193.812 86.4457 193.65 86.4526C192.963 86.4762 192.275 86.4738 191.566 86.4713H191.566L191.228 86.4703C191.118 86.47 191.008 86.4698 190.897 86.4698V89.9634H193.688V93.0301H190.886V96.6648H194.087V99.6972H187.647V83.4478H194.122ZM89.0508 93.1401L89.0576 93.0285H91.8318V89.9548H89.0783V86.4303H92.2621V83.4392H85.8256V99.7024H92.3103V96.6597H89.0232V93.6893C89.0232 93.5582 89.0318 93.4288 89.0428 93.2613L89.0508 93.1401ZM127.501 87.0578L127.491 87.0517C127.491 86.7189 127.493 86.3978 127.495 86.0845V86.0833V86.0832V86.083V86.0828V86.0827C127.499 85.4717 127.502 84.8907 127.491 84.3111C127.492 84.2317 127.476 84.1529 127.445 84.08C127.413 84.007 127.367 83.9415 127.308 83.8877C125.519 82.8311 122.479 82.6659 121.044 85.1682C120.392 86.275 120.16 87.5794 120.39 88.8432C120.62 90.107 121.297 91.2459 122.297 92.0521C122.621 92.3162 122.965 92.5565 123.309 92.7972L123.309 92.7972L123.309 92.7973L123.309 92.7973L123.309 92.7973L123.309 92.7974C123.534 92.9549 123.759 93.1127 123.98 93.2774C124.257 93.4605 124.516 93.6691 124.754 93.9004C125.011 94.1552 125.183 94.4836 125.244 94.8401C125.306 95.1967 125.255 95.5635 125.099 95.8898C124.979 96.2223 124.748 96.5034 124.445 96.6858C124.143 96.8682 123.786 96.9409 123.436 96.8914C122.6 96.7398 121.773 96.5434 120.958 96.3029C120.958 96.5414 120.962 96.7904 120.965 97.0465C120.973 97.5812 120.981 98.1467 120.958 98.7122C120.939 98.8778 120.979 99.0446 121.07 99.1841C121.161 99.3236 121.298 99.4269 121.457 99.4763C122.55 99.994 123.786 100.127 124.964 99.8549C127.863 99.2113 128.751 96.3132 128.355 93.9245C128.131 92.5856 127.284 91.6425 126.252 90.8267C126.063 90.6791 125.871 90.5342 125.679 90.3891L125.679 90.3889C125.182 90.0132 124.684 89.637 124.235 89.2124C123.443 88.4587 123.316 87.4089 123.822 86.6929C124.266 86.0527 125.257 85.8841 126.231 86.3247C126.509 86.4509 126.773 86.6135 127.065 86.7933L127.066 86.794L127.066 86.7945L127.067 86.7946L127.067 86.7947C127.201 86.8774 127.341 86.9637 127.491 87.0517V87.0647L127.501 87.0578ZM158.956 86.4237V83.5084L158.943 83.5118C157.973 83.2024 156.941 83.1449 155.943 83.3448C154.945 83.5447 154.015 83.9955 153.239 84.6546C149.236 87.8762 149.178 95.0975 153.129 98.3948C153.839 99.0143 154.681 99.4632 155.59 99.7072C156.5 99.9512 157.454 99.9838 158.378 99.8026C158.591 99.7647 158.936 99.5307 158.936 99.3723C158.974 98.7073 158.969 98.0385 158.963 97.3575V97.3561V97.3547V97.3533C158.962 97.1158 158.96 96.8768 158.96 96.636C158.914 96.6393 158.873 96.6416 158.834 96.6437C158.752 96.6481 158.683 96.6519 158.616 96.6635C156.716 97.0284 155.322 96.3675 154.444 94.6466C153.627 93.0768 153.444 91.2535 153.931 89.5525C154.582 87.1603 156.141 86.1312 158.588 86.4237C158.711 86.4307 158.834 86.4307 158.956 86.4237ZM140.986 83.4429H137.799V99.7061H140.986V83.4429ZM13.157 21.1914C16.2031 21.1914 17.7314 22.3513 18.0756 24.9466C18.5643 28.4918 18.2924 31.5654 17.246 34.3431C16.2582 36.9521 15.0294 38.7763 13.3807 40.0843C12.4962 40.7727 11.9041 41.1169 11.2571 41.1169C10.7304 41.1169 10.1694 40.8931 9.37775 40.4663C6.30409 38.7867 3.75361 36.2224 1.5783 32.5911C1.42862 32.3873 1.24319 32.2124 1.03103 32.0749C0.863268 31.9572 0.704499 31.8272 0.556037 31.6859C0.204958 31.3245 -0.0772814 31.0147 0.0190932 30.6946C0.0442162 30.6109 0.0680658 30.5246 0.0921911 30.4373L0.092194 30.4373C0.107731 30.3811 0.123382 30.3245 0.139561 30.2678C0.28911 29.5321 0.592946 28.8365 1.03103 28.2268C1.59074 27.6066 2.21626 27.0491 2.89656 26.5643C2.95572 26.5187 3.01487 26.4734 3.07387 26.4282L3.07473 26.4276C3.22485 26.3126 3.37397 26.1984 3.51956 26.0824L3.37499 25.8174L3.64347 25.6763L5.60538 24.6196C7.347 23.6765 9.15059 22.7024 10.9473 21.7834C11.6285 21.4186 12.3847 21.216 13.157 21.1914ZM12.0108 38.8968C12.1177 38.7913 12.2145 38.6761 12.3 38.5526C14.3548 34.9007 14.7988 30.7463 13.6389 25.4594C13.6129 25.3515 13.576 25.2466 13.5287 25.1462L13.4943 25.0533C13.4014 24.8158 13.2499 24.5439 13.0297 24.4716C12.9875 24.4575 12.9433 24.4505 12.8989 24.4509C12.7322 24.4616 12.5715 24.5175 12.4342 24.6127C12.0143 24.864 11.5944 25.1152 11.171 25.363L11.0805 25.4168L11.0804 25.4168C9.87284 26.1332 8.62543 26.8733 7.44682 27.6657C6.18707 28.5124 5.52621 29.0287 5.43672 29.576C5.34723 30.1233 5.77403 30.8357 6.72401 32.1299C7.91493 33.7545 9.11617 35.3413 10.3897 37.0175C10.8899 37.6646 11.3947 38.3323 11.9041 39.0207L12.0108 38.8968ZM25.7166 22.2356C26.6438 23.4932 27.4977 24.8033 28.2739 26.1594C28.6147 26.7686 29.4167 28.2246 28.1328 29.2572C27.8731 29.4401 27.5582 29.5277 27.2413 29.505C27.1623 29.5101 27.0829 29.5101 27.0038 29.505C26.1288 29.3402 25.3496 28.8478 24.8251 28.1282L22.0337 24.4247L21.8753 24.5279L21.7101 24.2801L20.6225 22.6727L20.5455 22.5591C19.6297 21.2073 18.6838 19.811 17.7932 18.4081L17.7878 18.3995C17.4807 17.9112 16.6821 16.6408 17.9481 15.7923C18.2072 15.6043 18.5011 15.4699 18.8128 15.3969C19.1244 15.3238 19.4475 15.3136 19.7631 15.3668C20.0787 15.4199 20.3806 15.5355 20.6511 15.7067C20.9215 15.8778 21.1552 16.1012 21.3384 16.3636L22.0647 17.317C23.2762 18.9175 24.5256 20.5766 25.7166 22.2356Z" fill="#FFFBC5"/>
</svg>
